<svg xmlns="http://www.w3.org/2000/svg" viewBox="0 0 512 512">
  <defs>
    <pattern id="dots" width="64" height="64" patternUnits="userSpaceOnUse">
      <circle cx="16" cy="16" r="6.5" fill="#f2b134"/>
      <circle cx="48" cy="48" r="6.5" fill="#2b47c4"/>
    </pattern>
  </defs>
  <rect width="512" height="512" fill="#dde4fa"/>
  <rect width="512" height="512" fill="url(#dots)" opacity=".9"/>
  <!-- assiette -->
  <circle cx="256" cy="256" r="150" fill="#fbfcfa" stroke="#d6dcd3" stroke-width="10"/>
  <circle cx="256" cy="256" r="104" fill="none" stroke="#dde4fa" stroke-width="8"/>
  <!-- fourchette -->
  <g fill="#2b47c4">
    <rect x="206" y="168" width="10" height="62" rx="5"/>
    <rect x="224" y="168" width="10" height="62" rx="5"/>
    <rect x="242" y="168" width="10" height="62" rx="5"/>
    <path d="M200 222 h58 v10 a29 29 0 0 1 -18 26 v86 a11 11 0 0 1 -22 0 v-86 a29 29 0 0 1 -18 -26 z"/>
  </g>
  <!-- couteau -->
  <path fill="#f2b134" d="M300 166 c22 18 26 70 14 100 h-8 v78 a11 11 0 0 1 -22 0 v-166 a8 8 0 0 1 16 -12 z"/>
</svg>
